<?xml version="1.0" encoding="UTF-8" standalone="no"?>
<!-- Created with Inkscape (http://www.inkscape.org/) -->

<svg
   xmlns:dc="http://purl.org/dc/elements/1.1/"
   xmlns:cc="http://creativecommons.org/ns#"
   xmlns:rdf="http://www.w3.org/1999/02/22-rdf-syntax-ns#"
   xmlns:svg="http://www.w3.org/2000/svg"
   xmlns="http://www.w3.org/2000/svg"
   xmlns:sodipodi="http://sodipodi.sourceforge.net/DTD/sodipodi-0.dtd"
   xmlns:inkscape="http://www.inkscape.org/namespaces/inkscape"
   width="96"
   height="96"
   viewBox="0 0 96.000001 96.000002"
   id="svg2"
   version="1.1"
   inkscape:version="0.91 r13725"
   sodipodi:docname="favicon.svg"
   inkscape:export-filename="favicon256x256.png"
   inkscape:export-xdpi="240"
   inkscape:export-ydpi="240">
  <defs
     id="defs4">
    <clipPath
       clipPathUnits="userSpaceOnUse"
       id="clipPath4205">
      <rect
         style="fill:#d71119;fill-opacity:1;stroke:none;stroke-width:3;stroke-linecap:round;stroke-linejoin:round;stroke-miterlimit:4;stroke-dasharray:none;stroke-dashoffset:0;stroke-opacity:1"
         id="rect4207"
         width="96"
         height="96"
         x="0"
         y="956.36218" />
    </clipPath>
  </defs>
  <sodipodi:namedview
     id="base"
     pagecolor="#ffffff"
     bordercolor="#666666"
     borderopacity="1.0"
     inkscape:pageopacity="0.0"
     inkscape:pageshadow="2"
     inkscape:zoom="3.959798"
     inkscape:cx="14.36004"
     inkscape:cy="6.9700971"
     inkscape:document-units="px"
     inkscape:current-layer="layer1"
     showgrid="false"
     units="px"
     inkscape:snap-global="true"
     inkscape:snap-bbox="true"
     inkscape:bbox-paths="true"
     inkscape:bbox-nodes="true"
     inkscape:snap-bbox-edge-midpoints="true"
     inkscape:snap-bbox-midpoints="true"
     inkscape:object-paths="true"
     inkscape:snap-intersection-paths="true"
     inkscape:object-nodes="true"
     inkscape:snap-smooth-nodes="true"
     inkscape:snap-midpoints="true"
     inkscape:snap-object-midpoints="true"
     inkscape:snap-center="true"
     inkscape:snap-text-baseline="true"
     inkscape:snap-page="true"
     inkscape:window-width="1440"
     inkscape:window-height="897"
     inkscape:window-x="-8"
     inkscape:window-y="-8"
     inkscape:window-maximized="1" />
  <metadata
     id="metadata7">
    <rdf:RDF>
      <cc:Work
         rdf:about="">
        <dc:format>image/svg+xml</dc:format>
        <dc:type
           rdf:resource="http://purl.org/dc/dcmitype/StillImage" />
        <dc:title />
      </cc:Work>
    </rdf:RDF>
  </metadata>
  <g
     inkscape:groupmode="layer"
     id="layer2"
     inkscape:label="イケダム"
     sodipodi:insensitive="true"
     style="display:inline">
    <path
       style="fill:#000000;fill-opacity:1;stroke:none;stroke-width:5;stroke-linecap:round;stroke-linejoin:round;stroke-miterlimit:4;stroke-dasharray:none;stroke-dashoffset:0;stroke-opacity:1"
       d="M 19.033176,33.904826 43.961387,-0.03117898 47.201054,12.425492 61.331401,1.8665742 62.236949,11.336116 73.242747,5.5859354 70.851706,34.106601"
       id="path4141"
       inkscape:connector-curvature="0"
       sodipodi:nodetypes="ccccccc" />
    <path
       style="fill:#fee5cc;fill-opacity:1;stroke:#000000;stroke-width:3;stroke-linecap:round;stroke-linejoin:round;stroke-miterlimit:4;stroke-dasharray:none;stroke-dashoffset:0;stroke-opacity:1"
       d="m 2.1428571,90.228974 c 0,-30.021095 -3.0474437,-73.750001 45.8928579,-73.750001 48.928609,0 45.892857,44.107144 45.892857,73.750001"
       id="path4139"
       inkscape:connector-curvature="0"
       sodipodi:nodetypes="csc" />
    <path
       style="fill:none;fill-opacity:1;stroke:#000000;stroke-width:3;stroke-linecap:round;stroke-linejoin:round;stroke-miterlimit:4;stroke-dasharray:none;stroke-dashoffset:0;stroke-opacity:1"
       d="m 4.2931483,38.189071 c 10.1046817,0 33.5672667,0.252538 42.4061017,0 8.838835,-0.252538 17.172594,-3.030457 17.425132,-8.333758 0.252538,-5.303301 -8.066775,-10.291289 -15.657365,-10.101525 -10.101525,0.252538 -15.404826,5.050763 -14.89975,9.091373 0.505076,4.04061 4.04061,9.34391 14.142136,9.34391 l 43.961941,0"
       id="path4143"
       inkscape:connector-curvature="0"
       sodipodi:nodetypes="csssssc" />
    <circle
       style="fill:#000000;fill-opacity:1;stroke:none;stroke-width:3;stroke-linecap:round;stroke-linejoin:round;stroke-miterlimit:4;stroke-dasharray:none;stroke-dashoffset:0;stroke-opacity:1"
       id="path4145"
       cx="75.276672"
       cy="51.553291"
       r="2.2728431" />
    <circle
       r="2.2728431"
       cy="51.553291"
       cx="20.920057"
       id="circle4147"
       style="fill:#000000;fill-opacity:1;stroke:none;stroke-width:3;stroke-linecap:round;stroke-linejoin:round;stroke-miterlimit:4;stroke-dasharray:none;stroke-dashoffset:0;stroke-opacity:1" />
    <path
       style="fill:#f17cb1;fill-opacity:1;stroke:#000000;stroke-width:3;stroke-linecap:round;stroke-linejoin:round;stroke-miterlimit:4;stroke-dasharray:none;stroke-dashoffset:0;stroke-opacity:1"
       d="m 11.59645,66.094536 c 0.02687,-4.841554 22.44979,-9.47018 26.536809,-9.47018 3.199924,0 5.133872,2.035838 8.333758,2.020305 3.877692,-0.01882 4.961098,-2.525382 8.838836,-2.525382 4.217912,0 25.738584,6.514596 25.738584,9.975257 0,4.250014 -7.954952,14.268405 -34.723994,14.268405 -26.769042,0 -34.756525,-8.406437 -34.723993,-14.268405 z"
       id="path4149"
       inkscape:connector-curvature="0"
       sodipodi:nodetypes="sssssss" />
    <path
       style="fill:none;fill-opacity:1;stroke:#000000;stroke-width:3;stroke-linecap:round;stroke-linejoin:round;stroke-miterlimit:4;stroke-dasharray:none;stroke-dashoffset:0;stroke-opacity:1"
       d="m 11.616754,66.725881 68.942912,0.252538"
       id="path4151"
       inkscape:connector-curvature="0" />
  </g>
  <g
     inkscape:label="本"
     inkscape:groupmode="layer"
     id="layer1"
     transform="translate(0,-956.36216)"
     style="display:inline">
    <g
       id="g4186"
       clip-path="url(#clipPath4205)">
      <path
         sodipodi:nodetypes="ccccccc"
         inkscape:connector-curvature="0"
         id="path4136"
         d="m -5.3961165,1028.8922 c 30.0000005,-14.2857 45.9370875,-2.352 50.7353125,-0.3317 7.575699,-3.4235 39.518819,-12.2428 54.737324,-2.0151 l 5.48442,7.3814 -60.104075,5.0508 -54.2956998,-1.7677 z"
         style="fill:#ffffff;fill-opacity:1;stroke:#000000;stroke-width:3;stroke-linecap:round;stroke-linejoin:round;stroke-miterlimit:4;stroke-dasharray:none;stroke-dashoffset:0;stroke-opacity:1" />
      <path
         inkscape:connector-curvature="0"
         id="path4153"
         d="m 45.181641,1028.4872 c 0.04801,0.021 0.112241,0.055 0.158203,0.074 0.04723,-0.021 0.117117,-0.05 0.166015,-0.072 l -0.324218,0 z"
         style="fill:#ffffff;fill-opacity:1;stroke:#000000;stroke-width:3;stroke-linecap:round;stroke-linejoin:round;stroke-miterlimit:4;stroke-dasharray:none;stroke-dashoffset:0;stroke-opacity:1" />
      <path
         sodipodi:nodetypes="ccccccc"
         inkscape:connector-curvature="0"
         id="path4164"
         d="m -8.8388348,1037.2099 7.5761441,37.8807 100.7627167,5.0508 6.060914,-46.2146 c -20.556078,-7.6532 -40.914155,-3.3551 -56.565935,3.1597 -2.369242,0.3548 -5.215804,0.5372 -7.53814,-0.1089 -19.360348,-13.6276 -32.9241907,-6.6914 -50.2956998,0.2323 z"
         style="fill:#ed1c24;fill-opacity:1;stroke:none;stroke-width:3;stroke-linecap:round;stroke-linejoin:round;stroke-miterlimit:4;stroke-dasharray:none;stroke-dashoffset:0;stroke-opacity:1" />
      <path
         inkscape:connector-curvature="0"
         id="path4168"
         d="m 41.456865,1036.9776 c -19.360348,-13.6276 -32.9241907,-6.6914 -50.2956998,0.2323 l 7.5761441,37.8807 44.2652447,2.2188"
         style="fill:#d71119;fill-opacity:1;stroke:#000000;stroke-width:3;stroke-linecap:round;stroke-linejoin:round;stroke-miterlimit:4;stroke-dasharray:none;stroke-dashoffset:0;stroke-opacity:1" />
      <path
         style="fill:none;fill-opacity:1;stroke:#000000;stroke-width:3;stroke-linecap:round;stroke-linejoin:round;stroke-miterlimit:4;stroke-dasharray:none;stroke-dashoffset:0;stroke-opacity:1"
         d="m -8.8388348,1037.2099 7.5761441,37.8807 100.7627167,5.0508 6.060914,-46.2146 c -20.556078,-7.6532 -40.914155,-3.3551 -56.565935,3.1597 -2.369242,0.3548 -5.215804,0.5372 -7.53814,-0.1089 -19.360348,-13.6276 -32.9241907,-6.6914 -50.2956998,0.2323 z"
         id="path4166"
         inkscape:connector-curvature="0"
         sodipodi:nodetypes="ccccccc" />
    </g>
  </g>
</svg>
